<!-- icon666.com - MILLIONS OF FREE VECTOR ICONS --><svg version="1.1" id="Capa_1" xmlns="http://www.w3.org/2000/svg" xmlns:xlink="http://www.w3.org/1999/xlink" x="0px" y="0px" viewBox="0 0 512 512" style="enable-background:new 0 0 512 512;" xml:space="preserve"><g><g><path d="M436,210c-5.059,0-88.853,0-97.721,0l78.327-78.327c5.858-5.858,5.858-15.355,0-21.213L310.54,4.393 c-5.857-5.858-15.355-5.857-21.213,0L119.622,174.099c-5.858,5.858-5.858,15.355,0,21.213L134.31,210c-6.143,0-51.362,0-58.31,0 c-8.284,0-15,6.716-15,15s6.716,15,15,15h16.562l25.564,231.969C120.662,494.79,139.889,512,162.851,512h186.297 c22.963,0,42.189-17.21,44.727-40.044L419.438,240H436c8.284,0,15-6.716,15-15S444.284,210,436,210z M278.721,57.426 l-13.258,92.808l-92.807,13.258L278.721,57.426z M280.841,178.342c6.6-0.943,11.785-6.128,12.729-12.728L310.541,46.82 l74.246,74.246L295.853,210H176.736l-14.688-14.688L280.841,178.342z M364.057,468.657c-0.845,7.607-7.254,13.343-14.908,13.343 H162.851c-7.654,0-14.063-5.736-14.907-13.33L122.744,240h266.512L364.057,468.657z"></path></g></g><g><g><path d="M196,300c-8.284,0-15,6.716-15,15v122c0,8.284,6.716,15,15,15s15-6.716,15-15V315C211,306.716,204.284,300,196,300z"></path></g></g><g><g><path d="M256,300c-8.284,0-15,6.716-15,15v122c0,8.284,6.716,15,15,15s15-6.716,15-15V315C271,306.716,264.284,300,256,300z"></path></g></g><g><g><path d="M316,300c-8.284,0-15,6.716-15,15v122c0,8.284,6.716,15,15,15s15-6.716,15-15V315C331,306.716,324.284,300,316,300z"></path></g></g></svg>